<svg id="Capa_1" data-name="Capa 1" xmlns="http://www.w3.org/2000/svg" viewBox="0 0 129.84 129.95"><defs><style>.cls-1{fill:#e8592a;}</style></defs><path class="cls-1" d="M263.25,405.4c4.82,0,9.67-.28,14.47.08,3.94.3,5.29-.87,5.18-4.92-.25-9.65-.1-19.31-.06-29s6-16.31,14.47-16.24c8.71.06,14.91,6.91,14.95,16.6,0,9.33.14,18.65-.08,28-.09,4.16,1.48,5.58,5.55,5.5,9.66-.18,19.32-.26,29,0,11.44.34,18.56,10.76,14.36,20.79-2.53,6-7.55,8.78-13.84,8.91-9.32.21-18.65.05-28,.07-7,0-7,0-7,7.31,0,9.32.11,18.65-.09,28a14.69,14.69,0,0,1-10.16,14,14.5,14.5,0,0,1-16.14-4.84,13.89,13.89,0,0,1-3-9.29c.05-9.82-.16-19.65.09-29.46.11-4.31-1.21-5.92-5.66-5.8-10,.25-20,.27-30,0-10.37-.31-16.93-9.25-14.24-18.87A13.84,13.84,0,0,1,245.79,406c5.8-.31,11.64-.07,17.46-.07Z" transform="translate(-232.44 -355.35)"/></svg>