<svg id="Capa_1" data-name="Capa 1" xmlns="http://www.w3.org/2000/svg" viewBox="0 0 224.12 224.11"><defs><style>.cls-1{fill:#49ae4a;}.cls-2{fill:none;}.cls-3{fill:#fff;}</style></defs><path class="cls-1" d="M297.81,533a111.58,111.58,0,0,1-55.89-15l-43.66,15,9-46.23a110.77,110.77,0,0,1-21.48-65.83A112.06,112.06,0,1,1,297.81,533Z" transform="translate(-185.75 -308.83)"/><path class="cls-2" d="M297.81,353.13a67.69,67.69,0,0,0-53.37,109.42l-4.53,23.33,22-7.59a67.73,67.73,0,1,0,35.89-125.16Z" transform="translate(-185.75 -308.83)"/><path class="cls-3" d="M297.81,494.1a72.82,72.82,0,0,1-36.51-9.83l-28.53,9.83,5.86-30.21a72.4,72.4,0,0,1-14-43,73.21,73.21,0,1,1,73.21,73.21Zm-35.2-21.8,2.21,1.38a62.43,62.43,0,1,0-16.09-14.49l1.53,2-3.2,16.5Z" transform="translate(-185.75 -308.83)"/><path class="cls-3" d="M260.85,392.76s4.3-7.5,7.8-7.93,8-.43,9.22,1.85,6.65,15.6,6.65,15.6a5.22,5.22,0,0,1-.5,4.5,44.76,44.76,0,0,1-4.64,5.44,4,4,0,0,0,0,4.72,85.9,85.9,0,0,0,10.3,12.63c5.72,5.73,16.73,9.82,16.73,9.82a3.35,3.35,0,0,0,2.57-.79c1-1,6.44-7.79,6.44-7.79a3.82,3.82,0,0,1,4.65-.93c2.89,1.32,15.44,7.58,15.44,7.58a2.72,2.72,0,0,1,1.47,2.75c0,2.22-.9,7.64-2.73,9.48s-7.2,7.49-15.26,7.49-27.25-6.56-37.47-16.79-19.31-20.6-21.45-30S258.21,396.65,260.85,392.76Z" transform="translate(-185.75 -308.83)"/></svg>